<?xml version="1.0" encoding="UTF-8"?>
<svg width="40px" height="40px" viewBox="0 0 40 40" version="1.1" xmlns="http://www.w3.org/2000/svg" xmlns:xlink="http://www.w3.org/1999/xlink">
    <!-- Generator: Sketch 45.2 (43514) - http://www.bohemiancoding.com/sketch -->
    <title>bot -</title>
    <desc>Created with Sketch.</desc>
    <defs>
        <linearGradient x1="168.542457%" y1="1.44473355%" x2="5.63511985%" y2="84.1693588%" id="linearGradient-1">
            <stop stop-color="#3023AE" offset="0%"></stop>
            <stop stop-color="#53A0FD" offset="100%"></stop>
        </linearGradient>
        <polygon id="path-2" points="0.196870493 0.44161636 17.7569768 0.44161636 12.5694441 6.3376754 5.34688973 6.3376754"></polygon>
        <polygon id="path-4" points="0.196870493 0.44161636 17.7569768 0.44161636 12.5694441 6.3376754 5.34688973 6.3376754"></polygon>
    </defs>
    <g id="Symbols" stroke="none" stroke-width="1" fill="none" fill-rule="evenodd">
        <g id="bot--">
            <rect id="bg" fill="url(#linearGradient-1)" x="0" y="0" width="40" height="40" rx="14"></rect>
            <path d="M20,28.2002098 C18.4364778,30.4905284 15.7628665,32 12.7272727,32 C7.90733309,32 4,28.1944204 4,23.5 C4,18.8055796 7.90733309,15 12.7272727,15 C15.7628665,15 18.4364778,16.5094716 20,18.7997902 C21.5635222,16.5094716 24.2371335,15 27.2727273,15 C32.0926669,15 36,18.8055796 36,23.5 C36,28.1944204 32.0926669,32 27.2727273,32 C24.2371335,32 21.5635222,30.4905284 20,28.2002098 Z M27.2727273,28.6944444 C30.2182459,28.6944444 32.6060606,26.3688125 32.6060606,23.5 C32.6060606,20.6311875 30.2182459,18.3055556 27.2727273,18.3055556 C24.3272086,18.3055556 21.9393939,20.6311875 21.9393939,23.5 C21.9393939,26.3688125 24.3272086,28.6944444 27.2727273,28.6944444 Z M12.7272727,28.6944444 C15.6727914,28.6944444 18.0606061,26.3688125 18.0606061,23.5 C18.0606061,20.6311875 15.6727914,18.3055556 12.7272727,18.3055556 C9.78175406,18.3055556 7.39393939,20.6311875 7.39393939,23.5 C7.39393939,26.3688125 9.78175406,28.6944444 12.7272727,28.6944444 Z" id="eyes" fill="#FFFFFF"></path>
            <g id="Combined-Shape" transform="translate(13.000000, 10.500000) scale(1, -1) translate(-13.000000, -10.500000) translate(4.000000, 7.000000)">
                <mask id="mask-3" fill="white">
                    <use xlink:href="#path-2"></use>
                </mask>
                <g id="Mask" opacity="0.300000012"></g>
                <path d="M9.01408451,17.3333333 C4.53357724,17.3333333 0.901408451,13.7516113 0.901408451,9.33333333 C0.901408451,4.91505533 4.53357724,1.33333333 9.01408451,1.33333333 C13.4945918,1.33333333 17.1267606,4.91505533 17.1267606,9.33333333 C17.1267606,13.7516113 13.4945918,17.3333333 9.01408451,17.3333333 Z M9.01408451,14.2222222 C11.7521723,14.2222222 13.971831,12.0333921 13.971831,9.33333333 C13.971831,6.63327456 11.7521723,4.44444444 9.01408451,4.44444444 C6.27599673,4.44444444 4.05633803,6.63327456 4.05633803,9.33333333 C4.05633803,12.0333921 6.27599673,14.2222222 9.01408451,14.2222222 Z" fill="#FFFFFF" mask="url(#mask-3)"></path>
            </g>
            <g id="Combined-Shape-Copy-2" transform="translate(17.971831, 7.000000)">
                <mask id="mask-5" fill="white">
                    <use xlink:href="#path-4"></use>
                </mask>
                <g id="Mask" opacity="0.300000012"></g>
                <path d="M9.01408451,17.3333333 C4.53357724,17.3333333 0.901408451,13.7516113 0.901408451,9.33333333 C0.901408451,4.91505533 4.53357724,1.33333333 9.01408451,1.33333333 C13.4945918,1.33333333 17.1267606,4.91505533 17.1267606,9.33333333 C17.1267606,13.7516113 13.4945918,17.3333333 9.01408451,17.3333333 Z M9.01408451,14.2222222 C11.7521723,14.2222222 13.971831,12.0333921 13.971831,9.33333333 C13.971831,6.63327456 11.7521723,4.44444444 9.01408451,4.44444444 C6.27599673,4.44444444 4.05633803,6.63327456 4.05633803,9.33333333 C4.05633803,12.0333921 6.27599673,14.2222222 9.01408451,14.2222222 Z" id="Combined-Shape" fill="#FFFFFF" mask="url(#mask-5)"></path>
            </g>
        </g>
    </g>
</svg>