<?xml version="1.0" encoding="UTF-8"?>
<svg width="32px" height="32px" viewBox="0 0 32 32" version="1.1" xmlns="http://www.w3.org/2000/svg" xmlns:xlink="http://www.w3.org/1999/xlink">
    <!-- Generator: Sketch 45.2 (43514) - http://www.bohemiancoding.com/sketch -->
    <title>send</title>
    <desc>Created with Sketch.</desc>
    <defs></defs>
    <g id="Symbols" stroke="none" stroke-width="1" fill="none" fill-rule="evenodd">
        <g id="send">
            <rect id="Rectangle-6" x="0" y="0" width="32" height="32"></rect>
            <path d="M25.8981718,6.08016494 C25.8091435,5.99579363 25.6824471,5.97621896 25.5750631,6.03003313 L6.17299225,15.7703333 C6.06853796,15.8227908 6.00127346,15.9353936 6.00001786,16.0598186 C5.99876225,16.1842437 6.0638145,16.2983969 6.16725235,16.3532448 L11.6580085,19.2647658 C11.758696,19.3181923 11.8787556,19.3061116 11.9686808,19.233498 L17.3072099,14.9222917 L13.116243,19.5801569 C13.0564524,19.6466332 13.0259591,19.7376586 13.0325361,19.8300407 L13.4498151,25.7017287 C13.4590827,25.8318388 13.5398001,25.9430849 13.6545384,25.9838493 C13.685211,25.9947026 13.7167207,26 13.7478716,26 C13.8333125,26 13.9164215,25.9603985 13.9742391,25.8880433 L16.8885557,22.2391454 L20.4912422,24.0990613 C20.5694484,24.1394381 20.6599715,24.1411177 20.7394332,24.1037773 C20.818895,24.0663722 20.8794032,23.9936294 20.9053523,23.9043483 L25.9862435,6.4197821 C26.0217591,6.29768272 25.9871403,6.16453626 25.8981718,6.08016494 Z" id="Shape" fill="#808080" fill-rule="nonzero"></path>
        </g>
    </g>
</svg>