<?xml version="1.0" encoding="UTF-8" standalone="no"?>
<svg width="14px" height="13px" viewBox="0 0 14 13" version="1.1" xmlns="http://www.w3.org/2000/svg" xmlns:xlink="http://www.w3.org/1999/xlink">
    <!-- Generator: Sketch 45.2 (43514) - http://www.bohemiancoding.com/sketch -->
    <title>Dialogue Cloud Icon</title>
    <desc>Created with Sketch.</desc>
    <defs></defs>
    <g id="Symbols" stroke="none" stroke-width="1" fill="none" fill-rule="evenodd">
        <g id="lable-copy-2" transform="translate(-6.000000, -4.000000)" fill="#7A69E6">
            <path d="M16.111,8.84399289 C15.681,8.84399289 15.333,9.20476893 15.333,9.6514916 C15.333,10.0962155 15.681,10.4579909 16.111,10.4579909 C16.541,10.4579909 16.889,10.0962155 16.889,9.6514916 C16.889,9.20476893 16.541,8.84399289 16.111,8.84399289 M13,8.84399289 C12.57,8.84399289 12.222,9.20476893 12.222,9.6514916 C12.222,10.0962155 12.57,10.4579909 13,10.4579909 C13.429,10.4579909 13.778,10.0962155 13.778,9.6514916 C13.778,9.20476893 13.429,8.84399289 13,8.84399289 M9.889,8.84399289 C9.459,8.84399289 9.111,9.20476893 9.111,9.6514916 C9.111,10.0962155 9.459,10.4579909 9.889,10.4579909 C10.318,10.4579909 10.667,10.0962155 10.667,9.6514916 C10.667,9.20476893 10.318,8.84399289 9.889,8.84399289 M13,15.3019838 C12.571,15.3019838 12.153,15.2660062 11.745,15.2060434 C11.496,15.5088554 11.138,15.8746283 10.621,16.2583901 C9.156,17.3447157 6.778,16.9169813 6.778,16.9169813 C6.778,16.9169813 7.995,15.6297803 8.323,13.8468871 C6.9,12.8125293 6,11.3184568 6,9.6514916 C6,6.52942975 9.134,4 13,4 C16.866,4 20,6.52942975 20,9.6514916 C20,12.7715547 16.866,15.3019838 13,15.3019838" id="Dialogue-Cloud-Icon" transform="translate(13.000000, 10.500000) scale(-1, 1) translate(-13.000000, -10.500000) "></path>
        </g>
    </g>
</svg>